<svg width="24" height="29" viewBox="0 0 24 29" fill="none" xmlns="http://www.w3.org/2000/svg">
<path d="M3.63239 23.1506H23.0632C23.1227 23.1506 23.1803 23.142 23.2357 23.1286C23.2402 23.1286 23.2438 23.1293 23.2482 23.1293C23.663 23.1293 24 22.7871 24 22.3651V0.764271C24.0001 0.342391 23.663 0 23.2482 0H23.0647H4.83473H3.63344C1.63244 0 0.00481233 1.65507 0.00481233 3.68877C0.00481233 3.71604 0.0100911 3.74193 0.0126995 3.76826C0.0100911 5.64689 -0.0128254 22.9092 0.0100911 25.1785C0.00866274 25.2229 0.0033217 25.2662 0.0033217 25.311C0.0033217 27.2666 1.50948 28.8675 3.40397 28.9884C3.44198 28.9944 3.47924 29 3.51868 29H23.2482C23.663 29 23.9999 28.6578 23.9999 28.2357V25.3589C23.9999 24.9371 23.6629 24.5946 23.2482 24.5946C22.8334 24.5946 22.4964 24.9372 22.4964 25.3589V27.4715H3.63239C2.48998 27.4715 1.55742 26.5494 1.51159 25.3996C1.51271 25.379 1.51637 25.3597 1.516 25.3388C1.51525 25.3052 1.51413 25.253 1.51339 25.1835C1.5791 24.0518 2.50302 23.1506 3.63239 23.1506ZM4.145 3.68877C4.145 3.26689 4.48179 2.9245 4.89677 2.9245C5.31175 2.9245 5.64854 3.26689 5.64854 3.68877V19.2132C5.64854 19.6349 5.31175 19.9774 4.89677 19.9774C4.48179 19.9774 4.145 19.6348 4.145 19.2132V3.68877Z" fill="#A026AA"/>
</svg>
