<svg width="50" height="59" viewBox="0 0 50 59" fill="none" xmlns="http://www.w3.org/2000/svg">
<path d="M7.56748 47.0996H48.0484C48.1723 47.0996 48.2924 47.0821 48.4078 47.0547C48.417 47.0547 48.4246 47.0563 48.4338 47.0563C49.298 47.0563 50 46.3601 50 45.5015V1.5549C50.0001 0.696588 49.298 0 48.4338 0H48.0515H10.0723H7.56968C3.40092 0 0.0100257 3.36721 0.0100257 7.50473C0.0100257 7.56023 0.0210232 7.61289 0.0264573 7.66645C0.0210232 11.4885 -0.0267195 46.6084 0.0210232 51.2253C0.0180474 51.3156 0.0069202 51.4037 0.0069202 51.4949C0.0069202 55.4734 3.14474 58.7304 7.0916 58.9765C7.17078 58.9886 7.24842 59 7.33057 59H48.4337C49.2978 59 49.9999 58.3038 49.9999 57.4451V51.5922C49.9999 50.7342 49.2977 50.0373 48.4337 50.0373C47.5697 50.0373 46.8675 50.7343 46.8675 51.5922V55.8903H7.56748C5.18746 55.8903 3.24463 54.0143 3.14914 51.675C3.15147 51.6332 3.1591 51.5938 3.15833 51.5513C3.15677 51.4829 3.15445 51.3767 3.15289 51.2354C3.28978 48.9331 5.21463 47.0996 7.56748 47.0996ZM8.63541 7.50473C8.63541 6.64643 9.33706 5.94984 10.2016 5.94984C11.0661 5.94984 11.7678 6.64643 11.7678 7.50473V39.0888C11.7678 39.9468 11.0661 40.6437 10.2016 40.6437C9.33706 40.6437 8.63541 39.9466 8.63541 39.0888V7.50473Z" fill="#7F5283"/>
</svg>
